<svg xmlns="http://www.w3.org/2000/svg" width="1200" height="760" viewBox="0 0 1200 760" role="img" aria-label="EgePad Six 3D case preview">
  <rect width="1200" height="760" fill="#f8fafc"/>
  <polygon points="220,246 864,158 1010,262 362,370" fill="#cbd5e1" stroke="#334155" stroke-width="5"/>
  <polygon points="362,370 1010,262 1010,502 362,624" fill="#94a3b8" stroke="#334155" stroke-width="5"/>
  <polygon points="220,246 362,370 362,624 220,486" fill="#64748b" stroke="#334155" stroke-width="5"/>
  <g fill="#f8fafc" stroke="#0f172a" stroke-width="5">
    <polygon points="310,262 422,248 452,278 340,294"/>
    <polygon points="500,238 612,224 642,254 530,270"/>
    <polygon points="690,214 802,200 832,230 720,246"/>
    <polygon points="350,386 462,366 492,400 380,420"/>
    <polygon points="540,354 652,334 682,368 570,388"/>
    <polygon points="730,322 842,302 872,336 760,356"/>
  </g>
  <ellipse cx="910" cy="278" rx="68" ry="48" fill="#1e293b"/>
  <ellipse cx="910" cy="278" rx="44" ry="30" fill="#64748b"/>
  <rect x="942" y="468" width="76" height="44" rx="10" fill="#0f172a"/>
  <text x="600" y="704" text-anchor="middle" font-family="Arial, sans-serif" font-size="28" fill="#0f172a">Sandwich case: 3mm top plate, 13mm bottom shell, USB-C side cutout</text>
</svg>

