<svg xmlns="http://www.w3.org/2000/svg" width="1200" height="760" viewBox="0 0 1200 760" role="img" aria-label="EgePad Six PCB layout preview">
  <rect width="1200" height="760" fill="#eef7f0"/>
  <rect x="120" y="122" width="920" height="600" rx="24" fill="#14532d" stroke="#052e16" stroke-width="8"/>
  <text x="160" y="96" font-family="Arial, sans-serif" font-size="32" fill="#111827">PCB target: 92mm x 60mm, 2 layers</text>
  <g fill="#f8fafc" stroke="#020617" stroke-width="5">
    <rect x="214" y="190" width="140" height="120" rx="10"/>
    <rect x="414" y="190" width="140" height="120" rx="10"/>
    <rect x="614" y="190" width="140" height="120" rx="10"/>
    <rect x="214" y="390" width="140" height="120" rx="10"/>
    <rect x="414" y="390" width="140" height="120" rx="10"/>
    <rect x="614" y="390" width="140" height="120" rx="10"/>
  </g>
  <g fill="#fde68a" stroke="#92400e" stroke-width="4">
    <circle cx="236" cy="570" r="18"/>
    <circle cx="336" cy="570" r="18"/>
    <circle cx="436" cy="570" r="18"/>
    <circle cx="536" cy="570" r="18"/>
    <circle cx="636" cy="570" r="18"/>
    <circle cx="736" cy="570" r="18"/>
  </g>
  <circle cx="886" cy="254" r="76" fill="#e5e7eb" stroke="#111827" stroke-width="6"/>
  <text x="886" y="262" text-anchor="middle" font-family="Arial, sans-serif" font-size="24" fill="#111827">ENC1</text>
  <rect x="818" y="468" width="150" height="72" rx="12" fill="#111827"/>
  <text x="893" y="512" text-anchor="middle" font-family="Arial, sans-serif" font-size="20" fill="#f8fafc">XIAO back</text>
  <g stroke="#facc15" stroke-width="7" fill="none" opacity="0.82">
    <path d="M284 310V390"/>
    <path d="M484 310V390"/>
    <path d="M684 310V390"/>
    <path d="M354 250H414"/>
    <path d="M554 250H614"/>
    <path d="M754 250H826"/>
    <path d="M354 450H414"/>
    <path d="M554 450H614"/>
    <path d="M754 450H818"/>
  </g>
  <text x="580" y="680" text-anchor="middle" font-family="Arial, sans-serif" font-size="24" fill="#f8fafc">MX grid on 19.05mm spacing; encoder right; XIAO bottom-side USB-C cutout</text>
</svg>

