<svg xmlns="http://www.w3.org/2000/svg" width="1200" height="760" viewBox="0 0 1200 760" role="img" aria-label="EgePad Six schematic preview">
  <rect width="1200" height="760" fill="#fffef8"/>
  <text x="64" y="70" font-family="Arial, sans-serif" font-size="34" fill="#111827">EgePad Six schematic preview</text>
  <rect x="74" y="145" width="270" height="392" rx="18" fill="#ffffff" stroke="#111827" stroke-width="4"/>
  <text x="209" y="195" text-anchor="middle" font-family="Arial, sans-serif" font-size="26" fill="#111827">XIAO RP2040</text>
  <text x="108" y="250" font-family="Arial, sans-serif" font-size="20" fill="#374151">D0 Row 0</text>
  <text x="108" y="292" font-family="Arial, sans-serif" font-size="20" fill="#374151">D1 Row 1</text>
  <text x="108" y="334" font-family="Arial, sans-serif" font-size="20" fill="#374151">D2 Col 0</text>
  <text x="108" y="376" font-family="Arial, sans-serif" font-size="20" fill="#374151">D3 Col 1</text>
  <text x="108" y="418" font-family="Arial, sans-serif" font-size="20" fill="#374151">D4 Col 2</text>
  <text x="108" y="476" font-family="Arial, sans-serif" font-size="20" fill="#374151">D8/D9/D10 Encoder</text>
  <g stroke="#2563eb" stroke-width="4" fill="none">
    <path d="M344 250H490"/>
    <path d="M344 292H490"/>
    <path d="M344 334H490"/>
    <path d="M344 376H490"/>
    <path d="M344 418H490"/>
  </g>
  <g font-family="Arial, sans-serif" font-size="22" fill="#111827" stroke="#111827" stroke-width="3">
    <rect x="510" y="170" width="112" height="54" fill="#fff"/>
    <rect x="680" y="170" width="112" height="54" fill="#fff"/>
    <rect x="850" y="170" width="112" height="54" fill="#fff"/>
    <rect x="510" y="310" width="112" height="54" fill="#fff"/>
    <rect x="680" y="310" width="112" height="54" fill="#fff"/>
    <rect x="850" y="310" width="112" height="54" fill="#fff"/>
  </g>
  <g font-family="Arial, sans-serif" font-size="22" fill="#111827">
    <text x="566" y="205" text-anchor="middle">SW1</text>
    <text x="736" y="205" text-anchor="middle">SW2</text>
    <text x="906" y="205" text-anchor="middle">SW3</text>
    <text x="566" y="345" text-anchor="middle">SW4</text>
    <text x="736" y="345" text-anchor="middle">SW5</text>
    <text x="906" y="345" text-anchor="middle">SW6</text>
  </g>
  <g stroke="#16a34a" stroke-width="4">
    <line x1="490" y1="250" x2="1010" y2="250"/>
    <line x1="490" y1="390" x2="1010" y2="390"/>
    <line x1="566" y1="224" x2="566" y2="455"/>
    <line x1="736" y1="224" x2="736" y2="455"/>
    <line x1="906" y1="224" x2="906" y2="455"/>
  </g>
  <circle cx="1030" cy="300" r="56" fill="#fff" stroke="#111827" stroke-width="4"/>
  <text x="1030" y="306" text-anchor="middle" font-family="Arial, sans-serif" font-size="20" fill="#111827">ENC1</text>
  <text x="600" y="668" text-anchor="middle" font-family="Arial, sans-serif" font-size="24" fill="#374151">2 rows, 3 columns, diodes COL2ROW, encoder on D8/D9/D10</text>
</svg>

